<?xml version="1.0" encoding="UTF-8"?>
<svg xmlns="http://www.w3.org/2000/svg" xmlns:xlink="http://www.w3.org/1999/xlink" viewBox="0 0 480 480" width="480px" height="480px">
<g id="surface10133969">
<path style=" stroke:none;fill-rule:nonzero;fill:rgb(100%,100%,100%);fill-opacity:1;" d="M 240 42 C 130.710938 42 42 130.710938 42 240 C 42 275.296875 51.421875 308.367188 67.617188 337.054688 L 32.507812 449.015625 L 150.65625 416.34375 C 177.539062 429.984375 207.820312 438 240 438 C 349.289062 438 438 349.289062 438 240 C 438 130.710938 349.289062 42 240 42 Z M 240 54 C 342.796875 54 426 137.203125 426 240 C 426 342.796875 342.796875 426 240 426 C 208.804688 426 179.460938 418.289062 153.65625 404.742188 L 151.570312 403.640625 L 50.554688 431.578125 L 80.578125 335.8125 L 79.242188 333.539062 C 63.210938 306.046875 54 274.125 54 240 C 54 137.203125 137.203125 54 240 54 Z M 240 72 C 236.695312 72 234 74.695312 234 78 C 234 81.304688 236.695312 84 240 84 C 243.304688 84 246 81.304688 246 78 C 246 74.695312 243.304688 72 240 72 Z M 271.757812 75.09375 C 268.828125 75.023438 266.296875 77.0625 265.710938 79.945312 C 265.078125 83.179688 267.1875 86.34375 270.445312 87 C 273.679688 87.632812 276.84375 85.523438 277.5 82.289062 C 278.132812 79.03125 276.023438 75.867188 272.789062 75.210938 C 272.4375 75.164062 272.109375 75.117188 271.757812 75.09375 Z M 208.429688 75.117188 C 208.03125 75.117188 207.632812 75.140625 207.234375 75.210938 C 203.976562 75.867188 201.867188 79.03125 202.523438 82.289062 C 202.828125 83.835938 203.742188 85.21875 205.078125 86.109375 C 206.390625 86.976562 208.007812 87.304688 209.578125 87 C 212.835938 86.34375 214.945312 83.203125 214.289062 79.945312 C 213.726562 77.15625 211.289062 75.140625 208.429688 75.117188 Z M 178.054688 84.328125 C 177.257812 84.328125 176.460938 84.46875 175.710938 84.773438 C 172.640625 86.0625 171.1875 89.554688 172.476562 92.625 C 173.742188 95.695312 177.234375 97.148438 180.304688 95.882812 C 183.375 94.59375 184.828125 91.101562 183.5625 88.03125 C 182.625 85.804688 180.46875 84.351562 178.054688 84.328125 Z M 302.132812 84.328125 C 299.648438 84.28125 297.398438 85.734375 296.4375 88.03125 C 295.171875 91.101562 296.625 94.59375 299.695312 95.882812 C 302.765625 97.148438 306.257812 95.695312 307.523438 92.625 C 308.8125 89.554688 307.359375 86.0625 304.289062 84.773438 C 303.609375 84.492188 302.859375 84.351562 302.132812 84.328125 Z M 150.070312 99.28125 C 148.851562 99.28125 147.65625 99.632812 146.648438 100.3125 C 143.90625 102.140625 143.15625 105.867188 145.007812 108.632812 C 146.835938 111.375 150.5625 112.125 153.328125 110.273438 C 156.09375 108.445312 156.820312 104.71875 154.992188 101.976562 C 153.890625 100.3125 152.039062 99.304688 150.070312 99.28125 Z M 330.09375 99.28125 C 328.054688 99.257812 326.132812 100.265625 325.007812 101.976562 C 323.15625 104.71875 323.90625 108.445312 326.648438 110.273438 C 329.414062 112.125 333.140625 111.375 334.96875 108.632812 C 335.859375 107.320312 336.1875 105.679688 335.882812 104.132812 C 335.578125 102.5625 334.664062 101.179688 333.328125 100.3125 C 332.367188 99.65625 331.265625 99.304688 330.09375 99.28125 Z M 125.53125 119.4375 C 123.914062 119.4375 122.34375 120.070312 121.21875 121.21875 C 118.875 123.539062 118.875 127.359375 121.21875 129.679688 C 123.539062 132.023438 127.359375 132.023438 129.679688 129.679688 C 132.023438 127.359375 132.023438 123.539062 129.679688 121.21875 C 128.578125 120.09375 127.101562 119.460938 125.53125 119.4375 Z M 354.632812 119.4375 C 353.015625 119.4375 351.445312 120.070312 350.320312 121.21875 C 347.976562 123.539062 347.976562 127.359375 350.320312 129.679688 C 352.640625 132.023438 356.460938 132.023438 358.78125 129.679688 C 361.125 127.359375 361.125 123.539062 358.78125 121.21875 C 357.679688 120.09375 356.203125 119.460938 354.632812 119.4375 Z M 374.765625 144 C 373.546875 143.976562 372.375 144.328125 371.367188 145.007812 C 368.625 146.835938 367.875 150.5625 369.726562 153.304688 C 371.554688 156.070312 375.28125 156.820312 378.023438 154.96875 C 380.789062 153.117188 381.539062 149.414062 379.6875 146.648438 C 378.585938 145.007812 376.734375 144 374.765625 144 Z M 105.398438 144 C 103.359375 143.953125 101.4375 144.960938 100.3125 146.648438 C 98.484375 149.414062 99.210938 153.140625 101.976562 154.96875 C 104.742188 156.820312 108.445312 156.070312 110.296875 153.328125 C 112.125 150.5625 111.398438 146.835938 108.632812 145.007812 C 107.671875 144.375 106.570312 144.023438 105.398438 144 Z M 171.65625 147.820312 C 166.992188 147.820312 160.195312 149.578125 154.59375 155.695312 C 150.820312 159.820312 136.453125 173.835938 136.453125 199.21875 C 136.453125 225.445312 154.664062 248.695312 156.984375 251.789062 C 156.984375 251.789062 159.867188 256.054688 163.96875 261.445312 C 168.046875 266.8125 173.765625 273.890625 180.9375 281.53125 C 195.257812 296.8125 215.414062 314.4375 240.28125 325.171875 C 251.835938 330.140625 260.929688 333.140625 267.84375 335.34375 C 280.335938 339.328125 291.703125 338.742188 300.375 337.429688 C 306.46875 336.539062 313.664062 333.398438 320.625 328.945312 C 327.609375 324.492188 334.289062 318.867188 337.101562 311.039062 L 337.101562 311.015625 C 339.234375 304.992188 340.335938 299.390625 340.710938 294.867188 C 340.921875 292.59375 340.945312 290.601562 340.804688 288.84375 C 340.664062 287.0625 340.734375 285.726562 339.328125 283.40625 C 336.28125 278.34375 332.296875 277.828125 327.773438 275.578125 C 325.382812 274.382812 318.375 270.914062 311.390625 267.5625 C 304.40625 264.1875 298.148438 261.140625 294.820312 259.921875 C 292.5 259.078125 289.851562 258 286.3125 258.398438 C 282.75 258.820312 279.28125 261.328125 277.125 264.585938 C 274.59375 268.382812 265.242188 279.492188 262.59375 282.539062 C 261.84375 283.382812 261.914062 283.195312 262.007812 283.195312 C 262.101562 283.171875 261.375 283.21875 259.523438 282.28125 C 256.382812 280.710938 251.976562 279.164062 245.648438 275.789062 C 239.34375 272.390625 231.421875 267.398438 222.773438 259.6875 C 209.53125 247.875 200.226562 232.828125 197.625 228.375 L 197.625 228.351562 C 196.875 227.0625 197.226562 227.648438 197.179688 227.742188 C 197.15625 227.835938 197.601562 227.109375 198.75 225.960938 L 198.773438 225.9375 C 201.421875 223.289062 204 219.890625 206.179688 217.3125 C 209.039062 213.984375 210.234375 211.195312 211.734375 208.21875 C 214.3125 203.085938 212.882812 197.625 211.3125 194.53125 C 211.359375 194.601562 210.398438 192.398438 209.273438 189.75 C 208.171875 187.125 206.765625 183.679688 205.242188 180.023438 C 202.242188 172.734375 198.890625 164.554688 196.898438 159.773438 C 194.671875 154.40625 191.835938 150.867188 188.25 149.179688 C 184.6875 147.515625 181.523438 148.007812 181.03125 147.984375 L 181.007812 147.984375 C 178.03125 147.820312 174.796875 147.820312 171.65625 147.820312 Z M 171.65625 159.820312 C 174.773438 159.820312 177.867188 159.820312 180.398438 159.960938 L 180.445312 159.960938 C 182.859375 160.078125 183.070312 160.03125 183.117188 160.054688 C 183.1875 160.078125 184.21875 160.523438 185.835938 164.390625 L 185.835938 164.414062 C 187.78125 169.101562 191.132812 177.28125 194.15625 184.59375 C 195.65625 188.273438 197.085938 191.695312 198.210938 194.390625 C 199.335938 197.085938 199.96875 198.65625 200.625 199.921875 L 200.625 199.945312 C 201.445312 201.5625 201.609375 201.632812 201 202.828125 C 199.335938 206.15625 198.9375 207.328125 197.0625 209.53125 C 194.554688 212.460938 191.882812 215.859375 190.289062 217.476562 C 189.070312 218.671875 187.101562 220.40625 185.929688 223.570312 C 184.78125 226.710938 185.25 230.953125 187.265625 234.375 C 190.171875 239.390625 199.875 255.351562 214.78125 268.640625 C 224.226562 277.054688 232.992188 282.609375 240 286.359375 C 247.007812 290.109375 252.585938 292.242188 254.179688 293.039062 C 257.085938 294.46875 260.109375 295.5 263.460938 295.101562 C 266.8125 294.679688 269.695312 292.640625 271.640625 290.414062 C 274.5 287.132812 283.289062 276.960938 287.085938 271.242188 C 288.046875 269.8125 287.765625 270.304688 287.671875 270.328125 C 287.578125 270.351562 288.679688 270.445312 290.71875 271.195312 C 291.703125 271.546875 299.25 275.015625 306.164062 278.34375 C 313.078125 281.695312 320.109375 285.164062 322.429688 286.3125 C 326.015625 288.117188 328.125 289.523438 328.851562 289.804688 C 328.898438 290.71875 328.898438 292.125 328.757812 293.835938 C 328.453125 297.304688 327.5625 301.96875 325.78125 306.984375 L 325.78125 307.007812 C 324.632812 310.195312 319.898438 315.140625 314.15625 318.84375 C 308.414062 322.523438 301.59375 325.125 298.59375 325.570312 C 290.90625 326.71875 281.671875 327.140625 271.476562 323.90625 C 264.65625 321.75 256.101562 318.914062 245.0625 314.15625 L 245.039062 314.15625 C 222.421875 304.382812 203.296875 287.859375 189.65625 273.304688 C 182.859375 266.039062 177.398438 259.289062 173.53125 254.179688 C 169.640625 249.070312 167.765625 246.164062 166.59375 244.59375 C 164.15625 241.359375 148.453125 219.609375 148.453125 199.21875 C 148.453125 178.03125 158.578125 169.148438 163.453125 163.78125 C 166.523438 160.429688 169.992188 159.820312 171.65625 159.820312 Z M 389.71875 172.007812 C 388.921875 171.984375 388.125 172.148438 387.375 172.453125 C 384.304688 173.71875 382.851562 177.234375 384.117188 180.28125 C 385.40625 183.351562 388.898438 184.804688 391.96875 183.539062 C 395.039062 182.273438 396.492188 178.757812 395.226562 175.6875 C 394.289062 173.484375 392.132812 172.007812 389.71875 172.007812 Z M 90.46875 172.007812 C 87.984375 171.960938 85.734375 173.414062 84.796875 175.710938 C 83.53125 178.78125 84.984375 182.273438 88.03125 183.5625 C 91.101562 184.828125 94.617188 183.375 95.882812 180.304688 C 97.148438 177.234375 95.695312 173.742188 92.625 172.476562 C 91.945312 172.171875 91.21875 172.03125 90.46875 172.007812 Z M 398.90625 202.40625 C 398.507812 202.382812 398.109375 202.429688 397.710938 202.5 C 394.476562 203.15625 392.367188 206.320312 393 209.554688 C 393.65625 212.8125 396.820312 214.921875 400.054688 214.289062 C 403.3125 213.632812 405.421875 210.46875 404.789062 207.210938 C 404.226562 204.421875 401.765625 202.40625 398.90625 202.40625 Z M 81.28125 202.40625 C 78.351562 202.335938 75.820312 204.351562 75.234375 207.210938 C 74.929688 208.78125 75.234375 210.421875 76.125 211.734375 C 77.015625 213.070312 78.398438 213.984375 79.96875 214.289062 C 81.515625 214.59375 83.132812 214.265625 84.46875 213.398438 C 85.78125 212.507812 86.695312 211.125 87 209.554688 C 87.65625 206.320312 85.546875 203.15625 82.3125 202.5 C 81.960938 202.453125 81.632812 202.40625 81.28125 202.40625 Z M 78 234 C 74.695312 234 72 236.695312 72 240 C 72 243.304688 74.695312 246 78 246 C 81.304688 246 84 243.304688 84 240 C 84 236.695312 81.304688 234 78 234 Z M 402 234 C 398.695312 234 396 236.695312 396 240 C 396 243.304688 398.695312 246 402 246 C 405.304688 246 408 243.304688 408 240 C 408 236.695312 405.304688 234 402 234 Z M 81.140625 265.59375 C 80.742188 265.59375 80.34375 265.640625 79.945312 265.710938 C 76.6875 266.367188 74.578125 269.53125 75.234375 272.789062 C 75.890625 276.023438 79.03125 278.132812 82.289062 277.5 C 85.546875 276.84375 87.65625 273.679688 87 270.445312 C 86.4375 267.632812 84 265.617188 81.140625 265.59375 Z M 399.046875 265.59375 C 396.117188 265.523438 393.585938 267.5625 393 270.445312 C 392.367188 273.679688 394.476562 276.84375 397.710938 277.5 C 400.96875 278.132812 404.132812 276.023438 404.789062 272.789062 C 405.421875 269.53125 403.3125 266.367188 400.054688 265.710938 C 399.726562 265.664062 399.398438 265.617188 399.046875 265.59375 Z M 389.8125 295.96875 C 387.328125 295.921875 385.078125 297.398438 384.117188 299.695312 C 382.851562 302.742188 384.304688 306.257812 387.375 307.523438 C 390.445312 308.789062 393.9375 307.335938 395.226562 304.289062 C 396.492188 301.21875 395.039062 297.703125 391.96875 296.4375 C 391.289062 296.15625 390.539062 295.992188 389.8125 295.96875 Z M 90.375 295.992188 C 89.578125 295.992188 88.78125 296.132812 88.03125 296.4375 C 86.578125 297.046875 85.40625 298.21875 84.796875 299.695312 C 84.1875 301.171875 84.1875 302.8125 84.773438 304.289062 C 86.0625 307.359375 89.554688 308.8125 92.625 307.523438 C 94.101562 306.9375 95.273438 305.765625 95.882812 304.289062 C 96.492188 302.8125 96.492188 301.171875 95.882812 299.695312 C 94.96875 297.46875 92.789062 296.015625 90.375 295.992188 Z M 374.8125 324 C 372.773438 323.953125 370.851562 324.960938 369.726562 326.648438 C 367.875 329.414062 368.625 333.117188 371.367188 334.96875 C 372.679688 335.859375 374.320312 336.1875 375.867188 335.859375 C 377.4375 335.554688 378.820312 334.640625 379.6875 333.304688 C 381.539062 330.5625 380.789062 326.835938 378.023438 325.007812 C 377.085938 324.351562 375.960938 324 374.8125 324 Z M 102 336 C 98.695312 336 96 338.695312 96 342 C 96 345.304688 98.695312 348 102 348 C 105.304688 348 108 345.304688 108 342 C 108 338.695312 105.304688 336 102 336 Z M 354.632812 348.5625 C 353.015625 348.539062 351.445312 349.171875 350.320312 350.320312 C 347.976562 352.640625 347.976562 356.460938 350.320312 358.78125 C 352.640625 361.125 356.460938 361.125 358.78125 358.78125 C 361.125 356.460938 361.125 352.640625 358.78125 350.320312 C 357.679688 349.195312 356.203125 348.5625 354.632812 348.5625 Z M 90 366 C 86.695312 366 84 368.695312 84 372 C 84 375.304688 86.695312 378 90 378 C 93.304688 378 96 375.304688 96 372 C 96 368.695312 93.304688 366 90 366 Z M 330.070312 368.695312 C 328.851562 368.671875 327.679688 369.023438 326.671875 369.679688 C 325.335938 370.570312 324.421875 371.953125 324.117188 373.523438 C 323.8125 375.070312 324.140625 376.710938 325.03125 378.023438 C 326.859375 380.765625 330.585938 381.515625 333.351562 379.6875 C 336.09375 377.835938 336.84375 374.109375 334.992188 371.34375 C 333.914062 369.703125 332.0625 368.695312 330.070312 368.695312 Z M 144 378 C 140.695312 378 138 380.695312 138 384 C 138 387.304688 140.695312 390 144 390 C 147.304688 390 150 387.304688 150 384 C 150 380.695312 147.304688 378 144 378 Z M 178.148438 383.648438 C 175.664062 383.601562 173.414062 385.078125 172.476562 387.375 C 171.210938 390.421875 172.664062 393.9375 175.710938 395.203125 C 178.78125 396.46875 182.296875 395.015625 183.5625 391.96875 C 184.828125 388.898438 183.375 385.382812 180.304688 384.117188 C 179.625 383.835938 178.898438 383.671875 178.148438 383.648438 Z M 302.039062 383.648438 C 301.242188 383.648438 300.445312 383.8125 299.71875 384.117188 C 298.242188 384.726562 297.070312 385.898438 296.460938 387.351562 C 295.851562 388.828125 295.851562 390.492188 296.4375 391.96875 C 297.726562 395.015625 301.21875 396.46875 304.289062 395.203125 C 305.765625 394.59375 306.9375 393.421875 307.546875 391.96875 C 308.15625 390.492188 308.15625 388.828125 307.546875 387.375 C 306.632812 385.125 304.453125 383.671875 302.039062 383.648438 Z M 114 384 C 110.695312 384 108 386.695312 108 390 C 108 393.304688 110.695312 396 114 396 C 117.304688 396 120 393.304688 120 390 C 120 386.695312 117.304688 384 114 384 Z M 208.570312 392.882812 C 205.640625 392.8125 203.085938 394.851562 202.523438 397.710938 C 201.867188 400.96875 203.976562 404.109375 207.234375 404.765625 C 210.492188 405.421875 213.632812 403.3125 214.289062 400.054688 C 214.945312 396.796875 212.835938 393.65625 209.578125 393 C 209.25 392.929688 208.898438 392.882812 208.570312 392.882812 Z M 271.617188 392.90625 C 271.21875 392.882812 270.820312 392.929688 270.445312 393 C 267.1875 393.65625 265.078125 396.796875 265.710938 400.054688 C 266.039062 401.625 266.953125 402.984375 268.265625 403.875 C 269.601562 404.765625 271.21875 405.09375 272.789062 404.789062 C 274.335938 404.460938 275.71875 403.546875 276.609375 402.234375 C 277.476562 400.898438 277.804688 399.28125 277.5 397.710938 C 276.9375 394.921875 274.476562 392.90625 271.617188 392.90625 Z M 78 396 C 74.695312 396 72 398.695312 72 402 C 72 405.304688 74.695312 408 78 408 C 81.304688 408 84 405.304688 84 402 C 84 398.695312 81.304688 396 78 396 Z M 240 396 C 236.695312 396 234 398.695312 234 402 C 234 405.304688 236.695312 408 240 408 C 243.304688 408 246 405.304688 246 402 C 246 398.695312 243.304688 396 240 396 Z M 240 396 "/>
</g>
</svg>
